<svg xmlns="http://www.w3.org/2000/svg"  width="50px" height="16px" viewBox="0 0 51 17">
<path fill="#3DC644" d="M21.7,0.3c-0.4-0.4-1-0.4-1.4,0L6.7,13.6l-5-4.9c-0.4-0.4-1-0.4-1.4,0s-0.4,1,0,1.4L6,15.7
	C6.2,15.9,6.4,16,6.7,16c0.3,0,0.5-0.1,0.7-0.3L21.7,1.8C22.1,1.3,22.1,0.7,21.7,0.3z"/>
<path fill="#F25B26" d="M43.3,8l6.5-6.5c0.4-0.3,0.4-0.9,0-1.3s-0.9-0.4-1.3,0L42,6.7l-6.5-6.5c-0.4-0.4-0.9-0.4-1.3,0
	c-0.4,0.3-0.4,0.9,0,1.3L40.7,8l-6.5,6.5c-0.4,0.4-0.4,0.9,0,1.3c0.2,0.2,0.4,0.3,0.6,0.3c0.2,0,0.5-0.1,0.6-0.3L42,9.3l6.5,6.5
	c0.2,0.2,0.4,0.3,0.6,0.3c0.2,0,0.5-0.1,0.6-0.3c0.4-0.4,0.4-0.9,0-1.3L43.3,8z"/>
</svg>
