<?xml version="1.0" encoding="utf-8"?>
<svg version="1.0" id="Layer_1" xmlns="http://www.w3.org/2000/svg" xmlns:xlink="http://www.w3.org/1999/xlink" x="0px" y="0px"
	 viewBox="0 0 510 412" enable-background="new 0 0 510 412" xml:space="preserve">
<g>
	<path fill="#EFEFEF" d="M226.7,45.6L199.1,0C183.3,9.7,0,78.8,0,255.9C0,302.6,2.2,412,122.5,412c72.5,0,90.4-66.4,90.4-87.7
		c0-141.9-138.6-91.6-138.6-91.6C74.3,116,202.7,59.3,226.7,45.6z"/>
</g>
<g>
	<path fill="#EFEFEF" d="M510,45.6L482.4,0c-15.8,9.7-199.1,78.8-199.1,255.9c0,46.7,2.2,156.1,122.5,156.1
		c72.5,0,90.4-66.4,90.4-87.7c0-141.9-138.6-91.6-138.6-91.6C357.6,116,486,59.3,510,45.6z"/>
</g>
</svg>
