<svg xmlns="http://www.w3.org/2000/svg" width="46px" height="42px"
	 viewBox="0 0 46 42">
<path fill="#283645" d="M2.1,20.9L21.6,1.4c0.3-0.3,0.3-0.9,0-1.2c-0.3-0.3-0.9-0.3-1.2,0l-20,20c-0.3,0.3-0.3,0.9,0,1.2l20,20c0.2,0.2,0.4,0.2,0.6,0.2s0.4-0.1,0.6-0.2c0.3-0.3,0.3-0.9,0-1.2L2.1,20.9z"/>
<path fill="#283645" d="M43.9,20.9L24.4,40.3c-0.3,0.3-0.3,0.9,0,1.2c0.3,0.3,0.9,0.3,1.2,0l20-20c0.3-0.3,0.3-0.9,0-1.2l-20-20C25.5,0.1,25.3,0,25,0c-0.2,0-0.4,0.1-0.6,0.2c-0.3,0.3-0.3,0.9,0,1.2L43.9,20.9z"/>
</svg>
